<?xml version="1.0" standalone="no"?>
<!DOCTYPE svg PUBLIC "-//W3C//DTD SVG 20010904//EN"
 "http://www.w3.org/TR/2001/REC-SVG-20010904/DTD/svg10.dtd">
<svg version="1.0" xmlns="http://www.w3.org/2000/svg"
 width="1400.000000pt" height="1400.000000pt" viewBox="0 0 1400.000000 1400.000000"
 preserveAspectRatio="xMidYMid meet">
<metadata>
Created by potrace 1.11, written by Peter Selinger 2001-2013
</metadata>
<g transform="translate(0.000000,1400.000000) scale(0.100000,-0.100000)"
fill="#000000" stroke="none">
<path d="M9546 9222 c-4 -6 -13 -9 -21 -5 -8 3 -15 1 -15 -5 0 -5 -11 -8 -25
-7 -14 2 -25 0 -25 -3 0 -4 -12 -8 -28 -8 -36 -2 -56 -7 -63 -17 -3 -4 -16 -9
-27 -10 -12 -1 -22 -6 -22 -11 0 -5 -3 -7 -6 -3 -4 3 -23 -5 -43 -18 -19 -14
-39 -25 -43 -25 -16 0 -98 -89 -121 -131 -38 -68 -58 -143 -59 -212 l0 -38
-99 3 c-55 2 -99 0 -99 -3 0 -3 -13 -4 -29 -1 -22 3 -29 -1 -34 -17 -3 -12 -1
-24 4 -27 6 -3 5 -11 -2 -20 -9 -11 -8 -14 2 -14 9 0 10 -3 2 -11 -5 -5 -8
-21 -5 -35 3 -19 9 -24 23 -21 11 3 19 1 19 -4 0 -6 8 -5 20 1 14 8 20 8 20 0
0 -8 6 -8 20 0 14 8 20 8 20 0 0 -8 6 -8 20 0 15 8 20 8 20 -1 0 -8 4 -8 15 1
9 8 15 8 15 2 0 -7 10 -8 30 -2 17 5 28 5 26 1 -3 -4 -1 -13 4 -21 4 -7 5 -23
0 -35 -4 -11 -4 -28 1 -37 6 -11 5 -19 -1 -23 -6 -4 -8 -11 -4 -16 11 -19 11
-59 0 -59 -6 0 -5 -4 2 -9 8 -4 14 -12 14 -16 0 -4 -6 -12 -14 -16 -10 -7 -10
-9 0 -9 10 0 10 -5 2 -20 -6 -11 -7 -20 -2 -20 4 0 8 -9 8 -20 0 -11 -5 -20
-11 -20 -5 0 -4 -4 4 -9 9 -6 10 -11 2 -15 -8 -5 -8 -13 -1 -27 8 -14 7 -19
-1 -19 -8 0 -8 -4 -2 -12 13 -17 12 -48 -1 -48 -6 0 -5 -4 2 -9 8 -4 14 -12
14 -16 0 -4 -6 -12 -14 -16 -11 -8 -11 -10 0 -18 8 -4 14 -12 14 -16 0 -4 -6
-12 -14 -16 -7 -5 -8 -9 -2 -9 9 0 11 -31 4 -50 -1 -3 -1 -9 0 -15 7 -34 6
-55 -4 -55 -6 0 -5 -4 2 -9 17 -11 17 -21 0 -32 -10 -7 -10 -9 0 -9 10 0 10
-5 2 -20 -6 -11 -7 -20 -2 -20 4 0 8 -9 8 -20 0 -11 -5 -20 -11 -20 -5 0 -4
-4 4 -9 9 -6 10 -11 2 -15 -8 -5 -8 -13 -1 -27 8 -14 7 -19 -1 -19 -8 0 -8 -4
-2 -12 13 -17 12 -48 -1 -48 -6 0 -5 -4 2 -9 8 -4 14 -12 14 -16 0 -4 -6 -12
-14 -16 -7 -5 -8 -9 -2 -9 6 0 11 -7 11 -15 0 -8 -5 -15 -11 -15 -6 0 -5 -4 2
-9 8 -4 14 -12 14 -16 0 -4 -6 -12 -14 -16 -8 -6 -9 -12 -3 -16 14 -11 17 -33
4 -33 -8 0 -8 -4 -1 -13 7 -8 7 -18 2 -27 -5 -8 -5 -21 1 -32 7 -13 6 -18 -2
-18 -8 0 -8 -4 -2 -12 13 -16 13 -48 0 -48 -5 0 -5 -6 1 -13 7 -8 32 -13 67
-12 32 0 55 -4 55 -10 0 -5 4 -4 9 3 4 7 14 12 22 10 12 -3 14 54 14 367 0
235 4 373 10 377 7 5 7 8 0 8 -6 0 -10 35 -10 85 0 47 4 85 8 85 5 0 5 6 1 12
-12 19 -12 48 0 48 7 0 7 3 1 8 -12 8 -14 172 -2 172 5 0 5 5 1 12 -4 6 -8 31
-8 54 -1 41 1 44 24 43 14 -1 33 2 43 6 9 4 17 3 17 -2 0 -5 7 -10 15 -10 8 0
15 4 15 8 0 5 10 5 23 0 14 -6 30 -5 41 1 10 6 21 6 25 2 9 -13 31 -16 31 -4
0 6 9 6 23 1 14 -6 30 -5 41 1 10 6 21 6 25 2 8 -12 31 -16 31 -6 0 4 16 7 35
7 19 0 35 -4 35 -8 0 -4 9 -3 20 3 14 8 20 8 20 0 0 -8 6 -8 20 0 14 8 20 8
20 0 0 -8 6 -8 20 0 14 8 20 8 20 0 0 -8 6 -8 20 0 14 8 20 8 20 0 0 -8 6 -8
20 0 14 8 20 8 20 0 0 -8 6 -8 20 0 14 8 20 8 20 0 0 -7 6 -8 19 0 14 7 21 6
24 -3 4 -9 6 -9 6 0 1 9 8 10 24 4 14 -6 30 -5 41 1 10 6 21 6 25 2 9 -13 31
-16 31 -4 0 6 9 6 23 1 13 -5 30 -5 38 -1 7 4 23 4 35 0 18 -7 21 -16 19 -62
-1 -29 3 -56 9 -60 8 -5 7 -8 -1 -8 -7 0 -10 -10 -7 -26 6 -31 -22 -57 -45
-44 -8 4 -25 4 -38 -1 -15 -5 -23 -5 -23 2 0 6 -7 6 -20 -1 -14 -8 -20 -8 -20
0 0 8 -6 8 -20 0 -15 -8 -20 -8 -20 2 0 9 -3 9 -10 -2 -9 -13 -10 -13 -10 0 0
9 -3 11 -8 5 -4 -6 -22 -10 -40 -10 -18 1 -35 -2 -37 -6 -3 -3 -16 -5 -30 -4
-14 2 -25 0 -25 -5 0 -4 -16 -11 -35 -14 -19 -4 -35 -11 -35 -17 0 -6 -4 -8
-9 -5 -4 3 -32 -17 -60 -44 -29 -28 -50 -50 -46 -50 3 0 -2 -14 -11 -32 -20
-38 -25 -78 -10 -78 8 0 8 -2 0 -8 -14 -9 -14 -43 0 -61 9 -12 8 -13 -2 -7
-10 6 -9 0 2 -23 9 -17 14 -31 10 -31 -4 0 -1 -6 5 -13 6 -8 8 -17 4 -20 -3
-4 1 -7 10 -7 9 0 17 -5 17 -11 0 -6 16 -25 36 -43 l35 -31 -38 -35 c-40 -36
-91 -110 -76 -110 4 0 4 -4 -2 -8 -5 -4 -16 -18 -23 -31 -11 -19 -11 -22 0
-15 10 6 10 4 -1 -9 -7 -9 -10 -17 -6 -17 4 0 2 -6 -4 -14 -9 -11 -9 -15 1
-19 7 -3 8 -6 2 -6 -12 -1 -10 -116 2 -161 4 -14 8 -31 10 -39 10 -53 114
-191 143 -191 6 0 14 -7 19 -16 5 -9 11 -15 13 -14 2 1 18 -4 34 -11 17 -7 33
-13 38 -14 4 -2 8 -3 10 -4 19 -16 235 -21 300 -8 21 4 53 15 70 24 18 9 35
17 39 18 4 0 16 7 26 16 10 8 26 18 36 22 9 4 14 12 11 17 -4 6 -3 9 2 8 5 -2
21 9 36 25 15 15 25 27 22 27 -3 0 1 10 10 23 8 13 12 27 8 30 -3 4 -2 7 4 7
6 0 14 7 17 16 4 10 2 13 -7 8 -8 -5 -7 -2 2 9 7 9 10 17 6 17 -4 0 -2 7 5 15
10 12 10 15 -1 16 -8 1 -21 2 -29 3 -8 1 -22 -2 -31 -6 -9 -4 -20 -4 -23 0 -4
3 -25 7 -47 7 -33 0 -39 -3 -39 -20 0 -35 -68 -115 -97 -115 -6 0 -13 -4 -15
-9 -1 -5 -17 -11 -35 -14 -17 -3 -36 -8 -42 -11 -5 -4 -12 -2 -16 4 -4 6 -12
7 -18 3 -14 -9 -87 -12 -87 -3 0 3 -10 7 -22 7 -29 3 -98 33 -98 44 0 4 -8 10
-17 13 -10 3 -23 16 -29 28 -6 13 -20 39 -29 58 -10 19 -19 50 -20 70 -2 19
-4 40 -5 45 -1 6 -1 12 0 15 2 6 6 26 13 62 11 56 73 128 133 153 19 8 37 14
39 15 3 0 7 1 10 1 3 1 13 2 23 3 9 1 23 5 30 9 7 5 12 3 12 -4 0 -9 3 -9 14
0 10 9 16 9 21 1 5 -8 11 -8 21 1 11 9 14 9 14 0 0 -7 10 -11 23 -9 25 3 87
-20 87 -33 0 -5 7 -9 16 -9 20 0 38 -21 65 -77 l21 -42 78 0 78 0 0 27 c0 15
-5 33 -10 40 -6 6 -7 12 -4 12 10 0 -26 63 -42 73 -7 5 -10 12 -7 18 4 5 -1 9
-10 9 -9 0 -14 4 -11 8 3 5 -6 15 -19 22 -14 7 -25 17 -25 22 0 4 -7 8 -15 8
-8 0 -15 3 -15 8 0 4 -15 13 -32 20 -18 7 -41 18 -51 23 -10 5 -22 7 -27 4 -6
-4 -10 -2 -10 2 0 11 -10 12 -130 16 -52 2 -99 1 -105 -4 -17 -13 -87 18 -116
52 -37 44 -44 90 -24 159 8 25 86 68 140 77 28 5 128 8 223 7 111 0 175 3 180
10 9 16 9 106 -1 106 -4 0 -5 5 -1 12 10 16 12 128 2 134 -4 3 -4 13 0 22 5 9
7 27 6 40 0 12 1 20 4 17 3 -2 12 0 19 7 9 7 17 8 21 2 10 -13 32 -16 32 -4 0
6 9 6 23 1 14 -6 30 -5 41 1 10 6 21 6 25 2 8 -12 31 -16 31 -6 0 4 16 7 35 7
19 0 35 -4 35 -8 0 -4 9 -3 20 3 14 8 20 8 20 0 0 -8 6 -8 20 0 14 8 20 8 20
0 0 -8 6 -8 20 0 14 8 20 8 20 0 0 -8 6 -8 20 0 14 8 20 8 20 0 0 -8 6 -8 20
0 14 8 20 8 20 0 0 -8 6 -8 20 0 14 8 20 8 20 0 0 -7 6 -8 19 0 14 7 21 6 24
-3 4 -9 6 -9 6 0 1 9 8 10 24 4 14 -6 30 -5 41 1 10 6 21 6 25 2 9 -13 31 -16
31 -4 0 6 9 6 23 1 14 -6 30 -5 41 1 10 6 21 6 25 2 9 -13 31 -16 31 -4 0 6 9
6 23 1 14 -5 30 -5 40 0 22 13 33 -13 31 -71 -2 -25 -3 -47 -4 -50 -1 -3 -2
-24 -2 -48 0 -26 -4 -40 -10 -36 -6 4 -6 -1 1 -13 6 -11 7 -23 4 -27 -4 -4 -8
-17 -10 -29 -5 -33 -24 -79 -45 -106 -10 -13 -18 -21 -18 -18 0 3 -12 -5 -26
-18 -15 -14 -31 -22 -36 -19 -5 3 -15 1 -22 -5 -7 -6 -29 -12 -49 -15 -20 -2
-42 -8 -48 -12 -8 -5 -9 -3 -4 6 6 10 4 11 -6 4 -8 -5 -55 -9 -105 -10 -50 0
-95 -4 -101 -7 -6 -4 -9 -27 -8 -52 2 -25 -1 -48 -7 -51 -5 -3 -5 -10 0 -17
11 -15 10 -107 -2 -126 -6 -9 -5 -12 1 -8 13 8 12 -146 -2 -155 -7 -5 -7 -8 0
-8 6 0 12 -15 13 -32 3 -31 8 -67 12 -78 1 -3 2 -9 1 -13 -1 -4 5 -20 14 -36
8 -16 11 -31 8 -35 -4 -3 0 -6 7 -6 7 0 11 -3 7 -6 -3 -3 3 -15 14 -27 10 -11
19 -27 19 -34 0 -8 5 -11 10 -8 6 3 10 -1 10 -9 0 -9 7 -16 15 -16 8 0 15 -4
15 -10 0 -8 70 -51 93 -56 4 -1 8 -2 10 -4 5 -4 43 -10 90 -15 26 -2 53 -7 59
-11 6 -4 8 -3 4 4 -4 7 5 10 26 8 18 -2 47 1 63 6 17 6 36 10 43 11 6 0 12 5
12 10 0 6 3 7 6 4 17 -16 110 69 141 129 37 72 44 89 48 129 2 22 5 40 5 40 5
0 6 105 1 106 -39 6 -152 2 -154 -6 -3 -5 -4 -25 -3 -43 1 -17 -3 -32 -8 -32
-5 0 -6 -3 -3 -7 4 -3 1 -13 -6 -21 -9 -13 -9 -14 1 -8 6 4 12 3 12 -3 0 -5
-4 -12 -9 -15 -4 -3 -11 -19 -14 -36 -7 -32 -64 -103 -78 -95 -4 3 -9 0 -11
-7 -3 -7 -24 -12 -51 -12 -26 -1 -47 -5 -47 -11 0 -7 -3 -7 -8 0 -4 6 -16 11
-27 12 -11 1 -28 3 -39 6 -25 5 -98 76 -91 88 4 5 1 9 -5 9 -6 0 -9 4 -5 9 3
5 1 12 -4 16 -5 3 -8 14 -6 25 2 11 1 20 -4 20 -4 0 -7 79 -8 176 l0 175 26
-3 c14 -1 31 1 38 5 6 4 14 3 18 -3 4 -6 12 -7 18 -3 14 9 251 8 265 -1 6 -3
14 -2 17 4 5 8 11 8 20 0 7 -6 15 -7 18 -3 6 10 209 9 225 0 6 -4 13 -4 15 0
6 9 179 9 193 0 5 -3 9 -153 8 -339 l-1 -333 76 1 c109 2 106 1 91 19 -7 8 -8
15 -3 15 5 0 9 9 9 20 0 11 -4 20 -9 20 -5 0 -4 7 3 15 7 8 9 15 4 15 -5 0 -9
11 -9 25 0 14 4 25 8 25 4 0 4 8 -1 18 -5 9 -6 26 -2 37 4 11 3 26 -2 33 -7 8
-7 12 1 12 9 0 9 5 0 21 -8 15 -8 19 0 15 6 -4 11 -3 11 3 0 5 -5 13 -10 16
-8 5 -7 11 1 21 6 8 8 14 3 14 -5 0 -9 11 -9 25 0 14 4 25 8 25 4 0 3 8 -2 18
-6 11 -6 24 0 35 7 12 6 17 -2 17 -8 0 -8 4 1 15 10 12 10 15 0 15 -10 0 -10
3 0 15 10 12 10 15 0 15 -10 0 -10 3 0 15 10 12 10 15 0 15 -10 0 -10 3 0 15
8 9 8 15 2 15 -7 0 -8 10 -2 30 6 20 5 30 -2 30 -6 0 -6 6 2 15 7 8 8 15 3 15
-5 0 -9 9 -9 20 0 11 3 20 6 20 3 0 6 9 6 20 0 11 -4 20 -9 20 -5 0 -4 7 3 15
10 12 10 15 -1 15 -10 0 -10 3 -1 12 8 8 8 17 1 31 -8 15 -8 18 1 12 9 -6 9
-2 1 14 -7 11 -8 21 -3 21 4 0 8 9 8 20 0 11 -3 20 -6 20 -3 0 -6 9 -6 20 0
11 4 20 8 20 5 0 5 8 0 18 -5 9 -6 26 -2 37 4 11 3 26 -2 33 -7 8 -7 12 1 12
9 0 9 5 0 21 -8 15 -8 19 0 15 6 -4 11 -3 11 3 0 5 -5 13 -10 16 -8 5 -7 11 1
21 6 8 8 14 3 14 -5 0 -9 11 -9 25 0 14 4 25 8 25 4 0 4 8 -1 18 -13 24 4 66
24 58 9 -4 13 -2 8 5 -4 8 1 9 17 3 29 -9 39 -9 62 1 9 4 17 3 17 -2 0 -5 7
-10 15 -10 8 0 15 4 15 8 0 5 11 5 23 0 13 -5 30 -5 37 -1 8 5 22 4 32 -1 10
-5 18 -6 18 -1 0 5 7 9 15 9 8 0 15 -4 15 -8 0 -4 14 -4 31 1 18 5 29 7 26 3
-4 -3 -2 -14 4 -24 5 -11 6 -19 1 -19 -4 0 -8 -9 -8 -20 0 -11 4 -20 9 -20 5
0 4 -7 -3 -15 -8 -9 -8 -15 -2 -15 7 0 8 -10 2 -28 -4 -16 -4 -36 2 -45 5 -10
5 -17 1 -17 -5 0 -9 -9 -9 -20 0 -11 4 -20 9 -20 5 0 4 -7 -3 -15 -7 -8 -9
-15 -4 -15 5 0 9 -11 9 -25 0 -14 -3 -25 -6 -25 -3 0 -6 -7 -6 -15 0 -8 5 -15
10 -15 5 0 4 -6 -2 -13 -6 -8 -8 -17 -4 -20 8 -9 11 -57 3 -57 -3 0 -6 -9 -6
-20 0 -11 5 -20 10 -20 6 0 6 -4 -1 -11 -6 -6 -8 -23 -3 -44 5 -21 3 -38 -3
-44 -8 -8 -7 -11 1 -11 9 0 10 -5 2 -19 -7 -13 -7 -22 0 -26 7 -4 7 -12 0 -25
-7 -13 -7 -21 0 -25 8 -5 7 -11 -1 -21 -9 -11 -9 -14 0 -14 8 0 9 -5 1 -19 -7
-14 -7 -22 0 -26 8 -5 7 -11 -1 -21 -9 -11 -9 -14 1 -14 10 0 10 -3 0 -15 -10
-12 -10 -15 0 -15 9 0 10 -3 1 -13 -6 -8 -8 -17 -4 -20 8 -9 11 -57 3 -57 -3
0 -6 -9 -6 -20 0 -11 5 -20 10 -20 6 0 6 -4 -1 -11 -6 -6 -8 -23 -3 -44 5 -21
3 -38 -3 -44 -8 -8 -7 -11 1 -11 9 0 10 -5 2 -19 -7 -13 -7 -22 0 -26 7 -4 7
-12 0 -25 -7 -13 -7 -21 0 -25 8 -5 7 -11 -1 -21 -9 -11 -9 -14 0 -14 8 0 9
-5 1 -19 -7 -14 -7 -22 0 -26 7 -4 8 -11 1 -18 -7 -9 11 -12 70 -11 43 1 83 2
87 3 5 0 8 282 8 626 -1 344 2 633 6 643 4 9 7 11 7 5 1 -9 8 -10 26 -3 16 6
25 6 25 -1 0 -6 7 -6 20 1 14 8 20 8 20 0 0 -8 6 -8 20 0 14 8 20 8 20 0 0 -8
6 -8 20 0 14 8 20 8 20 0 0 -8 6 -8 20 0 14 8 20 8 20 0 0 -8 6 -8 20 0 14 8
20 8 20 0 0 -8 6 -8 20 0 14 8 20 8 20 0 0 -7 6 -8 19 0 14 7 21 6 24 -3 4 -9
6 -9 6 0 1 9 8 10 24 4 14 -6 30 -5 41 1 10 6 21 6 25 2 9 -13 31 -16 31 -4 0
6 9 6 23 1 14 -6 30 -5 41 1 10 6 21 6 25 2 9 -13 31 -16 31 -4 0 6 9 6 23 1
14 -6 30 -5 41 1 10 6 21 6 25 2 9 -13 31 -16 31 -4 0 6 9 6 23 1 14 -6 30 -5
41 1 10 6 21 6 25 2 9 -13 31 -16 31 -4 0 6 9 6 23 1 14 -6 30 -5 41 1 10 6
21 6 25 2 8 -12 31 -16 31 -6 0 4 16 7 35 7 19 0 35 -4 35 -8 0 -4 9 -3 20 3
11 6 20 7 20 2 0 -5 13 -7 30 -4 24 3 31 0 39 -19 5 -13 6 -26 2 -29 -9 -8 -7
-200 2 -200 4 0 5 -5 2 -11 -4 -6 -7 -26 -7 -44 0 -30 -2 -32 -14 -20 -8 7
-14 16 -14 19 0 11 -65 65 -92 78 -16 7 -28 17 -28 21 0 5 -4 5 -10 2 -5 -3
-10 -1 -10 5 0 6 -4 9 -9 5 -5 -3 -12 -1 -16 5 -4 6 -11 8 -16 5 -5 -4 -9 -2
-9 2 0 5 -10 10 -22 10 -13 1 -56 3 -95 6 -51 3 -73 1 -73 -7 0 -6 -5 -4 -10
4 -5 8 -10 10 -10 5 0 -6 -12 -10 -27 -10 -16 1 -34 -3 -40 -8 -7 -5 -13 -6
-13 -2 0 4 -7 2 -15 -5 -8 -7 -15 -10 -15 -7 0 8 -112 -52 -125 -67 -5 -6 -25
-23 -43 -39 -19 -15 -30 -27 -26 -27 4 0 -2 -9 -14 -21 -12 -11 -19 -25 -16
-31 4 -6 3 -8 -2 -5 -5 3 -17 -8 -27 -24 -10 -18 -12 -27 -4 -23 6 4 3 -2 -7
-14 -11 -12 -16 -22 -13 -22 3 0 0 -17 -7 -37 -7 -21 -12 -46 -10 -55 1 -10
-3 -18 -9 -18 -8 0 -8 -3 -2 -8 13 -9 17 -32 6 -32 -5 0 -5 -20 0 -46 5 -25 6
-50 3 -55 -3 -5 -2 -15 3 -21 4 -7 8 -20 9 -28 1 -8 5 -26 10 -40 4 -14 6 -25
3 -25 -2 0 6 -11 18 -24 12 -13 20 -28 17 -33 -3 -4 0 -8 5 -8 6 0 11 -4 11
-9 0 -11 100 -114 100 -104 0 5 5 0 11 -10 6 -9 14 -15 18 -13 4 3 18 -4 29
-15 12 -11 22 -17 22 -13 0 3 7 1 15 -6 8 -7 21 -10 29 -7 8 3 16 1 18 -5 5
-13 18 -15 135 -24 57 -5 87 -3 97 5 9 7 17 8 20 2 6 -9 57 7 131 40 17 7 51
35 77 61 25 26 49 48 52 48 2 0 4 -13 4 -29 -1 -15 2 -33 6 -39 3 -6 2 -13 -3
-17 -7 -3 -7 -15 -1 -29 5 -13 6 -27 3 -30 -10 -9 -9 -126 0 -126 5 0 5 -6 0
-12 -10 -17 -13 -38 -5 -39 4 -1 42 -2 84 -3 55 -1 79 2 82 11 3 7 1 13 -4 13
-6 0 -5 11 1 27 7 19 7 29 0 31 -7 2 -7 12 0 30 7 18 7 28 0 30 -7 2 -7 12 0
30 7 18 7 28 0 30 -6 2 -7 12 -1 28 6 16 6 24 -1 24 -6 0 -7 5 -4 11 10 15 11
119 2 119 -5 0 -6 4 -2 10 10 16 12 110 3 110 -5 0 -7 4 -3 10 10 16 12 110 3
110 -5 0 -7 4 -3 10 10 16 12 110 3 110 -5 0 -7 4 -3 10 9 15 12 110 4 110 -5
0 -6 6 -3 14 8 21 10 146 2 146 -4 0 -3 12 3 27 7 19 7 29 0 31 -6 2 -7 12 -1
28 7 16 6 24 -1 24 -8 0 -8 4 -1 13 13 15 13 29 1 44 -6 7 -6 13 -1 17 5 3 7
17 4 32 -6 31 12 46 43 34 12 -5 29 -4 39 2 10 6 21 6 25 2 9 -13 31 -16 31
-4 0 6 9 6 23 1 14 -6 30 -5 41 1 14 8 21 7 27 -3 7 -11 9 -11 9 -1 0 7 4 11
8 8 9 -5 8 141 -1 151 -4 3 -7 1 -7 -6 0 -9 -5 -9 -20 -1 -15 8 -20 8 -20 -2
0 -8 -3 -9 -8 -3 -7 10 -282 15 -282 5 0 -3 -27 -3 -60 0 -33 3 -60 3 -60 -1
0 -4 -13 -4 -30 1 -16 5 -32 5 -34 2 -2 -4 -70 -5 -150 -2 -80 3 -146 3 -146
0 0 -3 -27 -3 -60 0 -33 3 -60 3 -60 -1 0 -4 -13 -4 -30 1 -16 5 -32 5 -34 2
-2 -4 -70 -5 -150 -2 -80 3 -146 3 -146 0 0 -3 -27 -3 -60 0 -33 3 -60 3 -60
-1 0 -4 -13 -4 -30 1 -16 5 -32 5 -34 2 -2 -4 -70 -5 -150 -2 -80 3 -146 3
-146 0 0 -3 -27 -3 -60 0 -33 3 -60 3 -60 -1 0 -4 -13 -4 -30 1 -16 5 -32 5
-34 2 -2 -4 -70 -5 -150 -2 -80 3 -146 3 -146 0 0 -3 -27 -3 -60 0 -33 3 -60
3 -60 -1 0 -4 -13 -4 -30 1 -16 5 -32 5 -34 2 -2 -4 -70 -5 -150 -2 -80 3
-146 3 -146 0 0 -3 -27 -3 -60 0 -33 3 -60 3 -60 -1 0 -4 -13 -4 -30 1 -16 5
-32 5 -34 2 -2 -4 -70 -5 -150 -2 -80 3 -146 3 -146 0 0 -3 -27 -3 -60 0 -33
3 -60 3 -60 -1 0 -4 -13 -4 -29 1 -16 4 -32 6 -35 3 -10 -10 -230 -2 -243 9
-9 7 -10 15 -2 29 5 10 6 19 1 19 -4 0 -9 15 -10 33 -3 40 -43 157 -54 157 -4
0 -8 6 -8 13 0 16 -74 97 -89 97 -6 0 -11 4 -11 9 0 5 -17 17 -37 26 -21 10
-40 21 -43 25 -13 19 -185 62 -252 64 -16 1 -28 6 -28 11 0 6 -5 3 -10 -5 -5
-8 -10 -10 -10 -4 0 12 -49 13 -69 0 -10 -6 -12 -6 -7 3 6 8 -3 11 -29 9 -20
-1 -39 -6 -41 -10 -3 -5 -10 -6 -15 -3 -18 12 -49 14 -55 3 -4 -7 -9 -6 -14 2
-5 8 -10 9 -14 2z m269 -151 c-2 -3 13 -7 33 -8 64 -2 172 -38 172 -56 0 -4 5
-5 10 -2 6 3 10 1 10 -4 0 -6 4 -11 10 -11 15 0 64 -55 83 -92 26 -54 38 -90
39 -123 1 -41 -2 -47 -22 -42 -11 3 -20 2 -20 -1 0 -4 -72 -5 -160 -2 -88 3
-160 3 -160 0 0 -3 -27 -3 -60 0 -33 3 -60 3 -60 -1 0 -4 -13 -4 -30 1 -16 5
-32 5 -34 2 -2 -4 -70 -5 -150 -2 -80 3 -146 1 -146 -3 0 -5 -5 -5 -11 -2 -5
4 -33 7 -61 7 l-50 -1 5 42 c7 56 21 101 46 140 22 36 66 77 81 77 6 0 10 4
10 9 0 10 90 48 103 43 4 -1 7 2 7 6 0 4 12 9 28 10 40 4 61 8 66 13 7 6 265
6 261 0z m1635 -489 c0 -5 7 -9 15 -9 8 0 15 3 15 6 0 3 16 6 35 6 19 0 35 -4
35 -8 0 -4 9 -3 20 3 14 8 20 8 20 0 0 -8 6 -8 20 0 14 8 20 8 20 0 0 -8 6 -8
20 0 14 8 20 8 20 0 0 -8 6 -8 20 0 12 6 20 7 20 1 0 -5 9 -7 20 -4 11 3 20 1
21 -3 0 -5 1 -109 2 -231 l2 -222 -33 3 c-18 1 -35 -1 -38 -6 -3 -5 -10 -5
-17 -1 -16 10 -58 10 -63 1 -3 -5 -11 -5 -17 -1 -16 9 -77 10 -104 1 -12 -4
-24 -4 -27 0 -5 9 -67 9 -82 0 -5 -4 -16 -3 -24 2 -8 5 -21 5 -31 -1 -26 -13
-31 15 -8 44 10 14 19 32 19 40 0 9 5 19 10 22 6 4 8 10 5 15 -3 5 -1 11 4 14
5 4 8 14 6 24 -1 9 4 29 11 44 9 17 10 29 4 33 -6 4 -7 12 -3 18 4 7 8 42 9
78 0 36 4 71 8 77 4 7 3 12 -1 12 -5 0 -9 9 -9 19 0 12 6 18 16 16 9 -2 23 1
31 6 18 11 29 11 29 1z m1795 -312 c3 6 11 7 17 4 6 -4 29 -8 53 -9 104 -5
228 -112 250 -215 2 -8 4 -16 5 -17 2 -2 3 -12 4 -22 0 -11 4 -22 8 -26 4 -4
3 -18 -2 -30 -6 -16 -5 -25 2 -27 8 -3 8 -9 2 -19 -5 -8 -9 -21 -10 -29 -3
-31 -17 -80 -23 -80 -7 0 -49 28 -67 45 -6 5 -22 17 -34 25 -13 8 -32 24 -44
35 -12 11 -41 33 -65 50 -24 16 -45 35 -48 42 -3 7 -8 11 -12 8 -4 -2 -14 5
-21 16 -8 10 -20 19 -27 19 -6 0 -17 8 -22 18 -6 9 -11 14 -11 10 0 -5 -8 0
-18 10 -10 9 -33 28 -52 42 -18 14 -39 31 -46 38 -7 6 -15 12 -19 12 -4 0 -13
7 -22 15 -16 16 -10 51 7 40 5 -3 10 -1 10 6 0 7 3 9 7 6 3 -4 12 -2 20 5 20
16 126 36 140 26 7 -5 14 -5 18 2z m-267 -180 c12 -11 26 -20 32 -20 6 0 9 -4
6 -8 -2 -4 9 -14 25 -21 16 -7 27 -17 23 -22 -3 -5 2 -9 10 -9 9 0 16 -4 16
-8 0 -4 12 -15 28 -24 28 -17 83 -61 114 -90 10 -10 21 -18 24 -18 3 0 11 -6
19 -12 30 -29 56 -48 66 -48 5 0 7 -4 4 -10 -3 -5 -1 -10 5 -10 7 0 24 -10 39
-22 15 -13 42 -34 59 -47 31 -23 31 -24 12 -41 -10 -9 -38 -25 -62 -34 -24
-10 -50 -21 -58 -26 -44 -21 -270 5 -270 32 0 5 -4 7 -9 4 -5 -3 -21 6 -35 19
-15 14 -31 25 -37 25 -5 0 -13 8 -16 18 -4 9 -15 26 -25 36 -9 10 -15 23 -12
28 3 4 1 8 -4 8 -6 0 -13 7 -16 16 -4 10 -2 13 7 8 9 -6 8 -3 -1 8 -7 9 -15
29 -17 45 -2 15 -4 29 -6 31 -5 7 -4 29 3 44 5 10 4 19 -2 23 -5 3 -10 11 -10
16 0 6 4 8 8 5 5 -3 8 5 7 17 -3 32 25 107 39 107 7 0 22 -9 34 -20z"/>
<path d="M4236 9150 c-10 -22 -26 -48 -35 -58 -9 -10 -17 -24 -19 -32 -2 -8
-7 -17 -10 -20 -4 -3 -21 -28 -38 -55 -31 -52 -36 -87 -8 -64 11 9 14 9 14 0
0 -9 5 -9 20 -1 15 8 20 8 20 -1 0 -9 3 -9 14 0 10 8 16 9 21 1 4 -7 12 -7 26
0 14 8 19 7 19 -1 0 -9 3 -9 14 0 10 8 16 9 21 1 4 -7 12 -7 26 0 14 8 19 7
19 -1 0 -9 3 -9 14 0 9 8 16 8 20 2 4 -6 18 -6 35 -1 16 4 33 5 36 2 4 -4 -18
30 -48 76 -31 45 -54 82 -51 82 3 0 -4 10 -16 22 -11 12 -20 28 -20 35 0 8 -4
11 -10 8 -5 -3 -10 3 -10 13 0 15 -18 33 -33 32 -1 0 -11 -18 -21 -40z"/>
<path d="M4144 8819 c-3 -6 -15 -9 -25 -6 -11 3 -20 2 -20 -1 -4 -22 -3 -1502
1 -1503 3 -1 82 -2 175 -3 l170 -2 -1 226 c0 124 1 228 3 232 2 4 10 2 17 -5
8 -6 12 -15 9 -19 -2 -5 0 -8 4 -8 5 0 19 -18 33 -40 14 -22 28 -40 32 -40 5
0 8 -7 8 -15 0 -8 4 -15 9 -15 5 0 14 -13 21 -30 7 -16 16 -27 20 -25 5 3 11
-4 15 -15 3 -11 11 -20 17 -20 6 0 9 -3 5 -6 -3 -4 -1 -12 6 -19 7 -7 19 -23
27 -35 8 -12 21 -28 28 -36 6 -7 12 -17 12 -23 0 -6 5 -11 10 -11 6 0 10 -6
10 -14 0 -8 3 -16 8 -18 4 -1 18 -16 31 -33 l23 -30 209 0 c135 0 209 3 209
10 0 5 -19 30 -41 55 -22 25 -50 58 -62 73 -12 16 -34 42 -49 59 -16 16 -28
34 -28 40 0 5 -4 6 -10 3 -6 -3 -10 -1 -10 5 0 6 -6 17 -12 24 -7 7 -29 32
-48 56 -19 24 -39 48 -45 54 -61 68 -125 146 -125 155 0 6 -7 11 -15 11 -22 0
-18 25 8 54 12 14 36 42 52 62 17 21 40 48 52 61 12 12 19 23 16 23 -3 0 6 11
21 25 14 13 26 28 26 32 0 5 8 15 18 24 9 8 31 32 47 54 17 21 42 51 58 67 15
15 27 32 27 37 0 5 3 11 8 13 4 2 30 31 58 65 29 34 55 59 59 55 5 -4 5 -1 1
6 -4 7 -12 10 -17 7 -5 -4 -9 -2 -9 2 0 11 -130 10 -146 0 -6 -3 -14 -3 -18 0
-10 10 -168 11 -188 1 -10 -5 -19 -4 -23 2 -12 20 -49 -17 -119 -120 -13 -19
-34 -47 -47 -61 -13 -15 -25 -32 -27 -40 -2 -7 -12 -19 -23 -27 -10 -7 -19
-20 -19 -28 0 -8 -3 -14 -7 -14 -5 0 -21 -21 -38 -45 -16 -25 -34 -45 -38 -45
-5 0 -6 -4 -2 -9 3 -5 -4 -16 -15 -24 -11 -7 -17 -17 -12 -22 4 -4 0 -6 -8 -3
-13 4 -15 57 -15 399 0 217 -4 400 -8 407 -5 7 -13 10 -18 7 -5 -4 -9 0 -9 7
0 8 -3 9 -8 3 -10 -14 -94 -16 -85 -2 4 6 1 7 -8 1 -20 -13 -102 -12 -111 0
-5 7 -8 7 -8 -1 0 -7 -9 -13 -21 -13 -11 0 -17 5 -14 10 3 6 4 10 1 10 -3 0
-8 -5 -12 -11z"/>
<path d="M7785 8720 c-11 -4 -22 -6 -25 -5 -3 2 -5 -10 -5 -25 0 -15 3 -26 7
-23 5 2 4 -7 -2 -21 -6 -16 -6 -27 0 -31 7 -4 6 -13 0 -26 -8 -13 -7 -19 0
-19 7 0 8 -6 1 -18 -5 -10 -6 -24 -2 -30 9 -14 7 -39 -4 -65 -5 -11 -15 -16
-31 -13 -14 3 -24 0 -24 -7 0 -8 -3 -8 -8 -2 -4 6 -20 10 -37 10 -28 0 -30 -2
-30 -40 0 -22 -4 -43 -10 -47 -7 -5 -7 -8 0 -8 6 0 10 -30 10 -70 0 -38 -4
-70 -8 -70 -4 0 -2 -10 4 -22 7 -13 13 -25 13 -28 1 -3 17 -5 37 -6 19 0 41
-4 47 -8 7 -4 12 -3 12 3 0 6 6 8 14 5 17 -6 29 -44 14 -44 -7 0 -7 -4 0 -13
7 -8 7 -18 2 -27 -5 -8 -6 -18 -3 -23 9 -15 10 -67 1 -67 -5 0 -4 -9 2 -20 6
-11 7 -20 2 -20 -5 0 -9 -7 -9 -15 0 -8 4 -15 9 -15 5 0 4 -9 -2 -19 -5 -11
-6 -22 -2 -25 10 -6 9 -36 0 -52 -4 -5 -3 -16 2 -24 5 -9 5 -19 -2 -27 -7 -9
-7 -13 0 -13 8 0 8 -8 3 -22 -4 -13 -5 -35 0 -50 5 -19 4 -28 -4 -28 -8 0 -8
-3 -2 -8 11 -8 14 -17 17 -61 1 -17 7 -31 12 -31 5 0 6 -3 3 -7 -4 -3 -1 -13
6 -21 10 -13 9 -14 -3 -7 -13 7 -13 6 0 -11 9 -10 22 -31 29 -45 19 -38 52
-71 94 -94 20 -11 37 -23 37 -28 0 -4 5 -5 10 -2 6 4 18 1 26 -6 8 -6 17 -9
21 -6 3 4 12 2 20 -4 8 -7 68 -12 158 -13 162 -1 168 1 155 60 -4 19 -4 34 1
34 5 0 5 10 0 23 -5 14 -5 30 0 40 7 11 6 17 -1 17 -6 0 -8 5 -4 12 10 16 12
58 2 58 -4 0 -3 12 2 26 8 21 8 25 -4 21 -7 -3 -19 0 -25 6 -8 8 -11 8 -11 -2
0 -10 -3 -11 -13 -2 -10 8 -17 7 -25 -1 -9 -9 -12 -9 -12 0 0 9 -5 10 -19 3
-10 -6 -21 -8 -23 -5 -3 3 -18 7 -33 10 -43 8 -57 30 -62 92 -2 31 -5 65 -7
75 -2 9 -1 17 4 17 4 0 4 18 0 40 -4 22 -4 40 -1 40 4 0 4 27 1 60 -3 33 -3
60 0 60 3 0 4 36 2 80 l-4 80 39 1 c21 0 69 1 107 1 63 0 106 15 90 31 -10 10
-9 97 1 97 7 0 7 3 0 8 -5 4 -10 21 -10 37 0 17 5 33 10 37 6 5 5 8 -2 8 -7 0
-10 7 -7 15 4 8 4 26 0 38 -5 20 -12 24 -46 23 -22 0 -40 -4 -40 -9 0 -4 -6
-5 -12 -1 -7 5 -38 8 -68 9 -48 0 -55 3 -55 20 -1 11 -4 25 -8 32 -4 6 -3 15
3 18 8 5 7 11 -1 21 -9 11 -8 14 2 14 11 0 11 2 -1 10 -11 7 -11 10 -2 10 10
0 10 5 2 20 -6 11 -7 20 -3 20 4 0 8 24 8 54 0 30 -2 53 -5 51 -3 -2 -12 0
-20 5 -8 5 -22 5 -32 -1 -12 -7 -18 -6 -18 1 0 7 -6 8 -19 1 -10 -6 -21 -8
-23 -6 -9 9 -98 11 -98 2 0 -4 -9 -3 -20 3 -12 6 -20 7 -20 1 0 -6 -11 -6 -27
-2 -16 5 -37 5 -48 1z"/>
<path d="M446 8461 c-4 -6 -17 -10 -29 -9 -12 0 -33 -4 -47 -9 -14 -6 -28 -11
-33 -12 -19 -2 -103 -53 -144 -87 -47 -39 -126 -147 -116 -158 4 -3 1 -6 -5
-6 -7 0 -12 -9 -12 -20 0 -11 -5 -20 -11 -20 -5 0 -8 -4 -4 -9 3 -5 0 -13 -6
-16 -5 -4 -8 -13 -5 -21 3 -7 -2 -20 -10 -29 -9 -8 -11 -15 -4 -15 8 0 8 -6
-1 -21 -6 -12 -9 -30 -6 -40 3 -10 2 -19 -2 -19 -4 0 -7 -45 -7 -100 1 -55 4
-100 9 -100 4 0 7 -5 7 -11 0 -5 -5 -7 -11 -3 -6 3 -4 -7 4 -22 8 -16 12 -35
10 -41 -3 -7 0 -13 5 -13 5 0 8 -11 7 -25 -2 -14 1 -25 6 -25 5 0 9 -9 9 -20
0 -11 5 -20 11 -20 5 0 7 -4 4 -10 -3 -5 -1 -10 4 -10 6 0 10 -3 9 -7 -7 -27
132 -193 160 -193 7 0 12 -4 12 -10 0 -5 7 -10 15 -10 8 0 15 -4 15 -8 0 -4
10 -8 22 -9 11 -1 25 -8 29 -15 5 -7 9 -10 9 -6 0 4 18 1 40 -7 47 -17 265
-13 265 5 0 1 11 4 25 6 13 2 28 10 32 17 4 6 8 8 8 2 0 -6 3 -6 8 0 10 15 66
50 75 47 4 -1 7 2 7 7 0 6 13 24 28 40 l28 31 -2 -75 c-1 -41 1 -76 5 -76 21
-4 333 -4 339 1 4 3 8 258 8 567 -1 456 -3 564 -14 568 -8 3 -10 0 -6 -8 6 -9
4 -9 -7 -1 -12 9 -154 12 -184 4 -5 -1 -12 -1 -15 0 -15 7 -90 5 -90 -3 0 -5
-6 -4 -14 2 -19 16 -23 1 -21 -76 1 -44 -3 -64 -12 -68 -8 -2 -11 0 -8 5 9 14
-67 83 -117 107 -70 33 -99 44 -108 38 -5 -3 -11 -1 -15 5 -4 6 -11 8 -16 4
-5 -3 -17 0 -26 8 -11 8 -14 8 -10 1 5 -8 0 -11 -13 -10 -11 1 -20 5 -20 9 0
5 -8 4 -18 -1 -13 -7 -22 -7 -29 0 -8 8 -13 7 -17 0z m204 -311 c3 -1 10 -3
15 -4 34 -7 65 -19 65 -27 0 -5 5 -9 11 -9 14 0 64 -57 80 -90 6 -14 15 -33
21 -43 5 -10 6 -22 3 -27 -3 -5 -2 -11 3 -14 20 -12 -5 -197 -28 -204 -5 -2
-8 -7 -6 -11 3 -4 -8 -22 -23 -39 -16 -17 -26 -34 -22 -39 3 -4 2 -5 -3 -1 -5
4 -20 -2 -34 -12 -13 -11 -31 -20 -38 -20 -8 0 -14 -4 -14 -8 0 -11 -102 -9
-119 2 -9 6 -12 5 -8 -2 9 -14 -76 27 -85 42 -4 6 -8 7 -8 3 0 -14 -49 44 -62
74 -7 16 -16 29 -20 29 -4 0 -7 8 -6 18 0 9 -4 38 -10 65 -5 27 -6 47 0 47 5
0 4 9 -2 19 -7 14 -7 22 0 26 6 4 8 10 5 15 -3 5 -1 11 4 15 5 3 8 15 6 26 -2
11 2 22 9 25 7 3 13 11 13 19 0 22 56 81 91 95 17 8 32 17 32 21 0 4 8 6 18 5
9 -2 28 0 42 4 22 6 55 6 70 0z"/>
<path d="M3270 8459 c0 -4 -12 -7 -27 -7 -49 -1 -97 -10 -143 -27 -59 -22
-140 -66 -140 -77 0 -4 -4 -7 -9 -5 -14 3 -121 -114 -121 -133 0 -6 -4 -10 -9
-10 -5 0 -12 -10 -16 -22 -9 -28 -8 -25 -28 -71 -9 -21 -16 -41 -16 -45 1 -4
0 -9 -1 -12 -5 -13 -10 -48 -12 -72 0 -16 -5 -28 -10 -28 -5 0 -4 -8 1 -19 6
-10 7 -21 4 -25 -11 -10 -11 -46 0 -46 5 0 4 -6 -2 -13 -6 -8 -8 -16 -5 -20 3
-3 7 -22 9 -44 1 -21 4 -39 5 -40 1 -2 4 -12 5 -23 1 -11 4 -22 5 -25 1 -3 4
-9 5 -15 1 -5 4 -12 5 -15 1 -3 3 -9 4 -14 0 -5 4 -13 9 -17 4 -4 7 -16 7 -26
0 -10 5 -18 12 -18 6 0 8 -3 5 -7 -4 -3 0 -15 10 -25 9 -10 13 -18 9 -18 -7 0
-4 -5 49 -64 19 -22 35 -44 35 -50 0 -5 3 -7 6 -3 3 3 15 -3 27 -14 11 -10 27
-19 34 -19 7 0 13 -7 13 -16 0 -8 5 -12 10 -9 6 3 10 1 10 -6 0 -7 3 -9 7 -6
3 4 16 1 28 -7 12 -8 30 -16 41 -18 10 -2 21 -6 24 -10 3 -4 22 -8 43 -10 20
-1 37 -5 37 -8 0 -11 180 -14 220 -4 14 3 34 7 45 8 11 1 26 5 33 9 6 5 12 6
12 2 0 -3 18 4 40 15 22 11 40 17 40 13 0 -4 7 2 15 13 8 10 15 15 15 11 0
-12 59 31 102 74 20 20 40 34 44 30 4 -3 5 -1 1 4 -3 6 1 19 9 30 8 10 14 15
14 9 0 -5 10 11 22 36 12 25 24 47 27 50 3 3 7 12 8 20 1 8 5 27 9 42 6 25 4
26 -27 23 -19 -2 -36 -4 -39 -5 -9 -4 -55 -1 -77 4 -14 3 -23 0 -23 -7 0 -8
-3 -8 -8 -2 -9 12 -142 15 -142 3 0 -5 -8 -5 -17 1 -13 7 -26 -1 -62 -39 -50
-52 -95 -70 -167 -66 -49 3 -134 44 -134 64 0 9 -3 12 -7 9 -6 -7 -32 36 -38
63 -2 8 -4 15 -5 15 -1 0 -4 15 -6 32 l-5 33 380 2 c229 2 381 -1 381 -6 0 -5
8 -1 19 10 10 10 16 24 13 29 -9 15 -11 35 -4 35 4 0 7 11 7 25 0 14 -3 25 -7
25 -11 0 -5 23 7 32 6 5 6 8 -1 8 -6 0 -10 12 -9 28 1 15 -1 32 -4 37 -3 6 -7
19 -9 30 -5 28 -10 50 -12 53 -2 1 -3 6 -4 11 0 5 -4 13 -8 17 -5 4 -8 16 -8
26 0 10 -3 18 -8 18 -4 0 -13 13 -20 29 -7 16 -26 44 -42 63 -16 18 -30 36
-30 41 0 4 -7 7 -16 7 -8 0 -13 4 -10 9 3 4 -6 13 -19 19 -14 7 -25 15 -25 20
0 4 -20 16 -45 26 -25 11 -45 24 -45 29 0 6 -3 8 -6 4 -4 -3 -18 0 -33 7 -14
7 -34 12 -43 11 -10 -2 -18 0 -18 4 0 8 -15 11 -67 11 -18 0 -33 5 -33 11 0 6
-6 7 -12 3 -16 -10 -48 -13 -48 -4 0 3 -9 6 -20 6 -11 0 -20 -3 -20 -7z m134
-300 c6 -9 17 -14 24 -12 6 3 12 0 12 -6 0 -6 6 -11 13 -11 15 0 57 -60 57
-83 0 -8 5 -19 10 -22 8 -5 7 -12 -2 -23 -11 -13 -11 -15 2 -7 9 5 12 5 7 -1
-5 -5 -105 -9 -223 -9 -164 0 -215 3 -218 12 -3 7 -1 13 4 13 6 0 10 9 10 20
0 11 5 20 11 20 5 0 8 4 4 9 -3 6 15 31 40 56 25 26 45 44 45 40 0 -4 7 -2 15
5 8 7 15 9 15 4 0 -4 5 -3 11 3 17 17 149 10 163 -8z"/>
<path d="M5828 8464 c-3 -3 -27 -6 -52 -7 -25 0 -46 -5 -46 -9 0 -4 -7 -5 -15
-2 -8 3 -20 2 -27 -2 -13 -9 -33 -14 -55 -16 -7 -1 -10 -5 -7 -10 3 -4 -2 -9
-10 -9 -9 -1 -19 -2 -23 -3 -12 -2 -85 -58 -108 -82 -44 -47 -65 -75 -65 -84
0 -6 -4 -10 -10 -10 -5 0 -10 -7 -10 -15 0 -8 -5 -15 -11 -15 -5 0 -8 -4 -5
-8 3 -5 -4 -23 -15 -41 -11 -18 -17 -36 -14 -42 4 -5 2 -9 -2 -9 -5 0 -9 -8
-10 -17 -1 -18 -10 -56 -13 -60 -2 -2 -3 -15 -4 -30 -1 -16 -5 -34 -9 -40 -5
-7 -4 -13 1 -13 5 0 9 -7 9 -15 0 -8 -3 -15 -7 -15 -3 0 -6 -13 -6 -30 0 -16
4 -30 9 -30 5 0 4 -7 -3 -15 -7 -8 -9 -15 -4 -15 5 0 10 -24 12 -54 1 -29 8
-72 16 -94 8 -22 12 -43 9 -46 -4 -3 -1 -6 5 -6 7 0 12 -12 12 -26 0 -14 4
-23 10 -19 6 3 10 -1 10 -10 0 -9 14 -37 32 -63 33 -47 118 -138 118 -126 0 4
8 0 18 -8 23 -21 104 -59 131 -61 11 -1 21 -4 21 -8 0 -4 51 -6 113 -4 124 4
137 6 137 15 0 3 10 6 22 7 11 1 24 6 27 10 3 4 13 9 21 11 8 2 17 8 18 13 2
5 8 9 13 9 11 0 33 17 57 44 56 61 60 60 52 -9 -4 -36 -2 -55 4 -55 6 0 5 -4
-3 -9 -30 -19 19 -26 181 -26 151 0 167 2 172 18 2 9 0 17 -5 17 -5 0 -4 11 1
25 5 14 6 25 1 25 -4 0 -8 7 -8 15 0 8 5 15 11 15 7 0 7 3 1 8 -13 9 -16 42
-3 42 5 0 6 5 2 12 -10 16 -11 68 -1 68 5 0 5 6 0 13 -11 18 -10 61 2 70 7 4
7 10 0 15 -14 10 -15 42 -2 42 8 0 7 4 -1 12 -7 7 -8 17 -2 29 7 12 6 20 0 24
-8 5 -7 12 2 23 11 13 11 14 -2 7 -13 -8 -13 -7 -1 8 7 9 9 17 4 17 -5 0 -9 9
-9 20 0 11 4 20 9 20 5 0 5 6 -1 13 -7 8 -7 18 -2 27 5 8 6 19 2 25 -10 15 -9
29 3 38 7 4 7 10 0 15 -14 10 -15 42 -2 42 8 0 7 4 -1 12 -7 7 -8 17 -2 29 7
12 6 20 0 24 -8 5 -7 12 2 23 11 13 11 14 -2 7 -13 -8 -13 -7 -1 8 7 9 9 17 4
17 -5 0 -9 9 -9 20 0 11 4 20 9 20 5 0 5 6 -1 13 -7 8 -7 18 -2 27 5 8 6 19 2
25 -10 15 -9 29 3 38 7 4 7 10 0 15 -13 10 -15 42 -3 42 7 0 7 5 0 13 -7 8 -7
18 -2 27 5 9 5 19 -1 26 -7 8 -6 14 1 19 7 4 6 10 -2 19 -15 15 -70 15 -80 1
-5 -7 -8 -6 -8 0 0 6 -22 11 -50 11 -27 0 -50 -4 -50 -9 0 -4 -5 -5 -12 -1
-19 12 -98 11 -98 0 0 -6 -4 -5 -8 2 -6 9 -15 10 -33 3 -13 -5 -17 -10 -9 -11
9 0 11 -3 5 -8 -11 -7 -14 -82 -4 -82 3 0 4 -11 2 -24 -4 -20 -8 -22 -18 -13
-7 7 -11 15 -8 20 2 4 -3 7 -11 7 -8 0 -18 9 -21 21 -4 11 -9 18 -12 15 -5 -4
-12 0 -46 30 -17 14 -96 45 -132 51 -16 3 -38 9 -49 15 -13 7 -16 7 -12 -1 9
-14 -7 -14 -20 -1 -6 6 -13 8 -16 4z m160 -322 c2 -6 9 -9 16 -6 8 3 20 -2 29
-10 8 -8 17 -13 19 -10 3 2 21 -13 41 -35 20 -21 33 -42 30 -45 -4 -3 -1 -6 6
-6 7 0 9 -4 6 -10 -3 -5 -1 -10 4 -10 6 0 11 -9 11 -19 0 -11 5 -23 10 -26 8
-5 7 -11 -1 -21 -8 -10 -8 -14 0 -14 7 0 10 -22 7 -67 -2 -38 -5 -68 -6 -68
-1 0 -3 -8 -5 -17 -5 -28 -29 -78 -37 -78 -5 0 -8 -6 -8 -14 0 -8 -9 -18 -20
-21 -11 -4 -18 -11 -15 -16 4 -5 0 -9 -9 -9 -8 0 -16 -3 -18 -7 -1 -5 -20 -16
-41 -26 -22 -10 -35 -12 -31 -6 5 8 3 9 -7 3 -20 -12 -99 -14 -99 -1 0 6 -3 8
-6 4 -23 -23 -147 76 -160 127 -3 14 -10 29 -15 32 -5 3 -7 10 -3 15 3 5 1 15
-4 22 -8 10 -10 146 -2 155 1 1 4 7 5 12 1 6 4 13 5 18 1 4 2 11 1 15 -1 4 6
10 14 13 8 3 13 10 10 14 -13 21 93 106 142 114 7 1 14 4 17 7 9 9 110 1 114
-9z"/>
<path d="M7489 8463 c-3 -9 -52 -20 -111 -26 -10 -1 -18 -5 -18 -10 0 -4 -4
-5 -10 -2 -5 3 -10 3 -10 -2 0 -4 -18 -17 -40 -27 -22 -11 -40 -23 -40 -28 0
-5 -4 -6 -10 -3 -5 3 -10 -1 -10 -10 0 -9 -4 -13 -10 -10 -5 3 -10 3 -10 -2
-1 -4 -16 -26 -34 -47 l-34 -39 2 90 c0 50 -2 89 -6 86 -5 -2 -8 -1 -8 4 0 12
-134 10 -142 -2 -5 -7 -8 -7 -8 0 0 6 -22 11 -50 11 -27 0 -50 -4 -50 -9 0 -4
-6 -5 -12 0 -41 26 -97 -11 -77 -49 7 -12 6 -18 -1 -18 -6 0 -8 -5 -3 -12 12
-20 12 -38 1 -38 -7 0 -7 -4 0 -13 7 -8 7 -18 2 -27 -5 -8 -6 -19 -2 -24 10
-16 10 -46 0 -46 -5 0 -6 -6 -1 -12 12 -20 12 -38 1 -38 -7 0 -7 -4 0 -13 7
-8 7 -18 2 -27 -5 -8 -5 -19 0 -25 10 -12 9 -33 -3 -52 -4 -6 -3 -15 3 -18 8
-5 7 -11 -1 -21 -7 -9 -8 -14 -1 -14 11 0 11 -25 0 -36 -4 -3 -3 -17 2 -30 6
-14 6 -26 0 -29 -6 -4 -7 -13 -1 -23 14 -26 14 -34 -1 -43 -8 -6 -9 -9 -1 -9
11 0 12 -24 1 -36 -4 -3 -3 -17 2 -30 6 -16 6 -24 -1 -24 -6 0 -7 -6 -2 -12
12 -20 12 -38 1 -38 -7 0 -7 -4 0 -13 7 -8 7 -18 2 -27 -5 -8 -5 -19 0 -25 10
-12 9 -33 -3 -52 -4 -6 -3 -15 3 -18 8 -5 7 -11 -1 -21 -7 -9 -8 -14 -1 -14
11 0 11 -25 0 -36 -4 -3 -3 -17 2 -30 6 -14 6 -26 -1 -29 -5 -4 -7 -11 -4 -16
12 -19 13 -49 2 -49 -8 0 -8 -3 -2 -8 6 -4 10 -14 10 -22 0 -12 19 -15 115
-15 67 0 118 -4 122 -10 5 -6 8 -6 8 2 0 8 16 10 46 8 32 -2 47 1 51 11 10 27
8 304 -2 308 -7 3 -7 5 0 5 11 1 12 91 1 109 -4 7 -4 12 1 12 4 0 8 36 7 81 0
44 3 82 7 85 4 2 6 13 4 24 -2 11 0 20 6 20 5 0 9 7 9 15 0 19 51 71 79 80 11
3 21 12 21 18 0 7 4 6 10 -3 6 -10 10 -11 10 -3 0 8 11 11 30 9 16 -2 28 0 25
4 -6 10 87 7 104 -4 10 -6 12 -6 7 3 -5 8 -3 12 5 10 32 -4 41 1 36 21 -3 11
-1 23 5 26 6 4 5 10 -3 15 -12 8 -12 10 0 18 11 7 11 9 0 14 -12 5 -12 6 0 6
11 1 11 4 0 17 -10 13 -10 17 2 25 11 7 11 9 0 9 -10 0 -11 3 -2 14 9 11 9 15
-1 19 -10 4 -10 7 1 15 11 8 11 10 0 15 -12 5 -12 6 0 6 11 1 11 4 0 17 -10
13 -10 17 2 25 11 7 11 9 0 9 -11 0 -11 3 -1 15 7 8 8 15 3 15 -6 0 -8 11 -6
24 5 25 -11 67 -18 49z"/>
<path d="M1366 8442 c-3 -5 2 -21 10 -36 7 -16 14 -35 14 -42 0 -8 5 -14 12
-14 6 0 9 -3 6 -6 -5 -5 10 -47 42 -119 45 -97 87 -205 82 -205 -4 0 -1 -4 5
-8 7 -4 14 -17 16 -27 2 -11 13 -39 25 -61 11 -23 18 -44 15 -48 -4 -3 0 -6 7
-6 7 0 10 -3 7 -6 -4 -4 0 -19 7 -33 23 -42 51 -105 52 -116 1 -13 40 -101 62
-140 9 -16 16 -32 15 -35 0 -3 3 -15 8 -28 5 -13 9 -28 9 -33 0 -5 4 -9 10 -9
5 0 9 -3 8 -7 -1 -8 5 -28 22 -68 19 -45 21 -65 5 -88 -8 -13 -12 -27 -8 -30
3 -4 1 -7 -5 -7 -7 0 -12 -9 -12 -20 0 -11 -5 -20 -11 -20 -5 0 -8 -4 -4 -9 3
-5 1 -12 -5 -16 -6 -4 -8 -11 -5 -16 4 -5 1 -9 -4 -9 -6 0 -11 -4 -11 -10 0
-16 -52 -125 -61 -128 -5 -2 -7 -8 -4 -12 3 -5 -4 -25 -15 -44 -11 -20 -19
-37 -18 -39 1 -2 -30 -73 -62 -139 -17 -36 -17 -37 2 -44 11 -3 22 -3 25 0 4
3 13 0 21 -7 13 -9 14 -9 8 1 -8 13 19 13 40 -1 6 -3 14 -3 18 0 11 12 80 10
95 -1 11 -8 13 -8 7 2 -8 13 19 13 40 -1 6 -3 14 -3 18 0 4 4 24 8 44 9 51 2
56 3 49 10 -3 3 3 21 14 40 10 19 19 43 19 54 0 11 4 20 9 20 9 0 26 48 23 63
-1 4 3 7 9 7 5 0 8 4 4 9 -3 5 1 15 8 23 15 14 17 20 17 42 0 8 7 22 16 30 8
9 12 16 8 16 -3 0 -1 7 6 15 7 8 10 15 6 15 -4 0 0 13 9 30 8 16 15 31 14 32
-2 2 4 14 11 28 8 14 13 28 12 33 -1 4 2 7 6 7 5 0 9 6 9 13 0 7 11 36 26 65
14 28 24 52 21 52 -3 0 2 12 10 28 8 15 21 43 29 62 8 19 21 50 28 68 8 17 17
32 21 32 4 0 5 6 2 14 -3 7 1 20 9 27 7 8 12 20 9 27 -2 6 0 12 6 12 5 0 9 6
9 13 0 6 12 38 27 69 15 32 27 60 27 63 0 2 20 51 45 107 25 57 47 108 48 113
2 6 13 33 26 60 12 28 23 56 23 63 0 6 4 12 9 12 4 0 8 9 8 20 0 11 5 20 12
20 6 0 8 3 5 7 -4 3 -2 12 4 20 6 7 8 13 4 13 -4 0 -2 7 5 15 7 8 9 15 4 15
-5 0 -3 4 4 9 7 4 14 14 16 22 1 8 7 24 14 36 7 12 12 28 12 37 0 8 7 22 16
30 8 9 13 16 9 16 -3 0 -1 9 4 19 8 14 7 20 -5 25 -10 4 -13 2 -8 -7 6 -9 4
-9 -7 -1 -15 11 -117 13 -135 2 -6 -4 -14 -4 -18 -1 -4 4 -44 8 -89 8 -78 1
-119 -7 -115 -23 1 -8 -7 -31 -27 -77 -8 -16 -11 -33 -9 -37 3 -4 1 -8 -4 -8
-5 0 -9 -6 -10 -12 -2 -23 -7 -43 -15 -55 -5 -7 -5 -13 0 -13 4 0 2 -4 -5 -9
-7 -4 -15 -17 -17 -27 -2 -10 -4 -20 -5 -21 -2 -2 -3 -6 -4 -10 -1 -5 -5 -14
-9 -20 -5 -7 -6 -17 -3 -22 4 -5 1 -11 -4 -13 -6 -2 -13 -15 -15 -29 -3 -15
-12 -40 -20 -55 -8 -16 -15 -34 -15 -40 0 -7 -7 -25 -15 -40 -8 -16 -15 -37
-15 -46 0 -10 -4 -18 -10 -18 -5 0 -9 -3 -8 -7 2 -5 -3 -28 -11 -53 -7 -25
-15 -51 -18 -59 -5 -20 -17 -4 -37 54 -10 28 -22 59 -27 70 -14 32 -50 134
-49 140 0 3 -6 18 -14 34 -9 16 -12 31 -9 35 4 3 0 6 -7 6 -7 0 -11 3 -7 6 3
4 0 19 -8 34 -8 15 -11 30 -8 34 4 3 1 6 -5 6 -6 0 -9 7 -6 15 4 8 1 15 -6 15
-6 0 -9 4 -5 9 3 5 0 13 -6 16 -5 4 -8 13 -5 21 3 8 1 14 -5 14 -6 0 -9 7 -5
15 3 8 1 15 -4 15 -5 0 -13 12 -16 28 -4 15 -9 32 -13 37 -6 11 -8 17 -10 38
-3 32 -35 53 -81 52 -25 -1 -51 -4 -57 -8 -6 -4 -14 -3 -17 1 -7 11 -87 9
-105 -3 -9 -5 -12 -4 -8 2 7 11 -89 11 -100 -1 -3 -3 -12 -1 -19 5 -7 5 -15 6
-18 1z"/>
<path d="M7407 6864 c-4 -5 -136 -12 -312 -17 -27 -1 -53 -6 -57 -12 -5 -7 -8
-6 -8 1 0 6 -10 10 -22 8 -13 -1 -23 -3 -23 -4 0 -3 -50 -8 -117 -11 -32 -2
-58 -6 -58 -9 0 -3 -19 -6 -43 -6 -75 -3 -112 -7 -131 -17 -14 -7 -16 -6 -11
4 6 8 4 10 -5 4 -7 -4 -24 -9 -39 -11 -107 -11 -147 -17 -151 -23 -3 -3 -27
-7 -55 -9 -68 -3 -125 -13 -125 -21 0 -3 -12 -6 -27 -7 -38 -1 -89 -11 -102
-19 -6 -3 -11 0 -11 7 0 9 -3 10 -8 2 -6 -10 -23 -15 -101 -30 -7 -1 -35 -8
-61 -14 -26 -6 -56 -13 -66 -15 -11 -2 -19 -4 -19 -5 0 -1 -11 -3 -24 -6 -14
-2 -30 -9 -38 -15 -8 -8 -13 -8 -13 -1 0 6 -19 3 -48 -7 -26 -10 -57 -17 -70
-16 -12 1 -19 -1 -16 -4 7 -7 -105 -39 -153 -43 -7 -1 -13 -5 -13 -10 0 -5 -4
-7 -9 -3 -5 3 -13 1 -16 -5 -4 -6 -14 -10 -23 -9 -10 2 -35 -5 -57 -15 -21 -9
-48 -19 -60 -21 -11 -2 -22 -4 -25 -5 -3 -2 -8 -2 -12 -1 -5 0 -8 -3 -8 -9 0
-6 -3 -9 -7 -9 -5 1 -10 0 -13 -1 -3 -1 -13 -3 -23 -5 -10 -2 -26 -7 -35 -11
-9 -4 -24 -8 -32 -10 -9 -2 -41 -15 -73 -28 -31 -14 -57 -23 -57 -20 0 3 -10
-2 -22 -10 -12 -9 -30 -16 -40 -16 -10 0 -18 -5 -18 -10 0 -6 -6 -10 -12 -8
-7 1 -27 -5 -44 -15 -17 -9 -34 -13 -38 -10 -3 4 -6 1 -6 -5 0 -7 -4 -12 -9
-12 -5 0 -26 -8 -47 -17 -22 -9 -42 -18 -46 -19 -5 -1 -11 -3 -15 -4 -5 -1
-11 -2 -15 -1 -5 0 -8 -3 -8 -8 0 -5 -25 -19 -55 -31 -30 -12 -55 -26 -55 -31
0 -5 -3 -8 -7 -7 -13 4 -73 -24 -73 -34 0 -5 -4 -7 -9 -3 -5 3 -12 1 -16 -5
-4 -6 -11 -8 -16 -5 -5 4 -9 2 -9 -4 0 -8 -40 -27 -47 -22 -2 0 -12 -8 -23
-19 -12 -12 -25 -18 -30 -15 -6 4 -10 1 -10 -5 0 -6 -4 -8 -10 -5 -5 3 -10 2
-10 -3 0 -5 -15 -17 -32 -26 -55 -28 -103 -58 -109 -68 -3 -5 -9 -9 -13 -9
-22 3 -36 0 -32 -8 3 -5 -8 -14 -24 -21 -17 -7 -30 -17 -30 -22 0 -5 -4 -7 -8
-4 -5 3 -24 -8 -43 -24 -19 -16 -38 -29 -42 -30 -4 0 -17 -9 -29 -20 -12 -11
-28 -20 -35 -20 -7 0 -13 -4 -13 -9 0 -5 -19 -20 -42 -34 -24 -14 -57 -39 -75
-55 -17 -17 -33 -29 -36 -26 -2 2 -18 -9 -35 -26 -18 -16 -34 -30 -38 -30 -5
0 -73 -55 -132 -107 -14 -13 -29 -23 -33 -23 -5 0 -9 -7 -9 -15 0 -8 6 -15 14
-15 8 0 16 -3 18 -7 4 -11 85 -73 94 -73 4 0 15 -10 25 -22 11 -11 19 -18 19
-15 0 4 8 -1 19 -10 10 -10 58 -54 106 -98 104 -94 125 -116 125 -127 0 -4 8
-8 17 -8 9 0 14 -2 11 -5 -3 -3 9 -21 26 -39 17 -18 47 -51 66 -75 19 -24 41
-49 48 -56 6 -8 12 -16 12 -19 0 -5 17 -28 45 -60 6 -6 16 -22 23 -36 7 -14
19 -33 27 -44 13 -17 15 -17 30 -2 9 9 14 16 11 16 -6 0 23 36 52 66 7 8 11
14 8 14 -2 0 15 21 39 47 24 26 42 50 39 55 -3 4 2 8 10 8 9 0 16 4 16 8 0 20
407 432 427 432 2 0 20 16 39 36 19 20 34 34 34 30 0 -4 13 5 29 21 16 15 43
39 61 53 18 14 48 40 68 57 21 18 40 33 44 33 4 0 23 14 43 31 19 17 35 28 35
25 0 -3 8 2 18 12 34 31 62 52 71 52 5 0 16 6 23 13 29 28 76 56 83 49 5 -4 5
-2 1 5 -4 8 2 15 18 19 13 3 27 12 30 21 3 8 10 11 16 8 5 -3 10 -1 10 4 0 6
7 11 15 11 8 0 15 4 15 8 0 5 18 17 40 27 22 10 40 22 40 27 0 5 5 6 10 3 6
-3 10 -1 10 4 0 6 6 11 14 11 7 0 19 7 26 15 7 8 16 12 21 9 5 -3 9 0 9 5 0 6
6 11 14 11 8 0 16 3 18 8 4 10 110 62 126 62 6 0 12 4 12 8 0 10 69 44 84 42
5 -1 12 3 15 8 9 14 164 85 184 84 9 0 15 3 12 8 -6 10 51 31 61 22 4 -4 4 -1
0 6 -4 7 -1 12 9 12 9 0 35 8 58 19 110 49 136 59 141 53 3 -3 6 0 6 7 0 8 7
11 15 7 8 -3 15 -2 15 2 0 4 20 14 44 21 25 7 47 18 50 24 3 8 5 7 5 -2 1 -11
6 -10 21 4 11 10 20 15 20 10 0 -4 12 0 26 10 18 11 24 12 18 4 -6 -11 -3 -10
10 1 10 8 23 15 30 17 33 7 40 9 94 30 9 3 21 5 26 4 4 -1 13 2 20 7 10 9 71
26 71 21 0 -1 11 4 25 11 14 8 32 15 40 16 20 3 54 12 58 14 1 2 7 4 12 5 6 1
11 4 13 5 1 1 11 4 22 6 11 1 49 12 84 23 35 11 68 18 72 15 4 -2 10 0 14 6 3
5 16 10 29 10 12 0 26 3 29 7 4 3 17 8 29 9 28 4 63 12 63 14 0 1 11 4 24 6
14 2 51 11 83 20 32 8 63 12 68 9 6 -3 10 -1 10 4 0 6 3 10 8 9 9 -3 144 23
156 30 5 3 23 6 40 7 17 2 49 6 71 10 22 5 48 8 58 7 9 0 17 3 17 7 0 4 18 7
41 6 22 -1 42 2 44 5 2 3 21 7 42 9 21 2 47 4 58 5 11 1 25 5 32 9 6 4 14 3
18 -3 4 -6 12 -7 18 -3 11 7 50 13 89 14 21 0 44 26 23 26 -8 0 -12 -4 -9 -9
6 -9 -39 -4 -56 7 -5 3 -10 1 -10 -5 0 -7 -6 -8 -17 -2 -10 5 -27 8 -38 6 -10
-1 -26 3 -34 9 -11 9 -13 9 -8 0 5 -8 -8 -10 -50 -7 -128 10 -234 11 -239 2
-3 -4 -11 -5 -17 -1 -17 11 -357 10 -357 -1 0 -5 -6 -3 -13 3 -8 6 -16 8 -20
5z"/>
<path d="M3050 6455 c0 -6 -29 -11 -67 -12 -38 0 -88 -3 -113 -7 -25 -3 -61
-8 -80 -10 -19 -3 -46 -8 -60 -11 -35 -7 -92 -17 -112 -18 -10 -1 -18 -5 -18
-10 0 -5 -6 -7 -14 -4 -8 3 -17 3 -20 -1 -7 -6 -23 -10 -65 -17 -13 -2 -27 -7
-30 -12 -3 -4 -13 -9 -21 -10 -30 -3 -59 -12 -82 -24 -13 -7 -25 -12 -28 -12
-5 1 -41 -12 -70 -24 -8 -3 -18 -5 -22 -5 -5 1 -8 -2 -8 -6 0 -5 -6 -9 -12 -9
-18 0 -192 -83 -199 -95 -3 -5 -10 -10 -15 -10 -22 -2 -44 -11 -44 -18 0 -4
-10 -10 -22 -14 -31 -7 -13 -24 32 -30 40 -5 83 -13 120 -22 14 -3 36 -7 50
-9 14 -2 40 -8 59 -14 19 -6 37 -8 42 -6 4 3 10 1 14 -5 3 -5 19 -10 36 -10
16 0 29 -4 29 -9 0 -4 10 -7 23 -7 12 1 28 -2 35 -7 6 -5 12 -6 12 -2 0 4 7 2
15 -5 9 -7 26 -14 38 -14 36 -3 117 -28 117 -36 0 -5 8 -7 18 -5 9 1 23 -2 30
-8 6 -5 12 -6 12 -3 0 4 10 1 23 -6 12 -6 27 -13 34 -14 22 -4 88 -27 98 -34
6 -4 31 -13 58 -21 26 -7 47 -17 47 -21 0 -4 3 -8 8 -7 4 1 18 -2 32 -7 14 -4
26 -7 28 -5 1 1 10 -5 18 -14 9 -8 24 -15 35 -15 10 0 19 -4 19 -10 0 -5 9
-10 20 -10 11 0 20 -5 20 -11 0 -5 4 -8 9 -4 5 3 16 -2 25 -10 8 -9 19 -16 23
-16 17 0 83 -33 83 -42 0 -4 4 -6 8 -3 5 3 18 -2 28 -12 11 -9 26 -18 34 -20
8 -2 18 -9 22 -15 4 -7 8 -9 8 -4 0 4 21 -8 47 -26 l48 -34 65 50 c36 28 67
53 70 56 3 4 23 19 45 36 22 16 46 35 53 42 7 7 16 13 20 13 4 0 21 14 39 30
18 17 36 30 40 30 7 0 47 31 95 74 9 8 18 12 20 10 3 -2 19 9 37 25 18 16 46
35 62 41 16 7 29 16 29 20 0 4 18 15 40 25 22 10 40 22 40 27 0 5 4 7 9 4 5
-4 11 -1 13 4 2 6 12 12 21 14 10 1 22 8 26 15 5 7 10 12 12 11 5 -2 62 23 69
30 3 3 16 11 30 18 31 15 60 33 77 49 15 14 18 37 3 28 -5 -3 -10 -1 -10 5 0
6 -4 8 -10 5 -5 -3 -10 -1 -10 6 0 7 -3 10 -6 6 -4 -3 -28 5 -54 18 -26 13
-50 21 -54 18 -3 -4 -6 0 -6 7 0 7 -3 11 -6 7 -4 -3 -22 0 -40 8 -19 8 -34 11
-34 7 0 -3 -5 -1 -12 6 -7 7 -25 12 -40 12 -15 0 -28 4 -28 8 0 4 -14 9 -31
10 -18 1 -37 6 -43 9 -13 8 -29 12 -68 16 -16 1 -28 4 -28 7 0 3 -8 6 -17 7
-22 1 -88 11 -88 13 0 1 -22 4 -50 6 -27 3 -53 10 -57 17 -4 7 -8 8 -8 2 0 -5
-11 -10 -25 -10 -14 0 -25 3 -25 6 0 3 -15 6 -32 7 -75 3 -114 8 -125 15 -6 4
-14 4 -17 -1 -5 -8 -46 -9 -62 -1 -5 3 -67 5 -139 5 -76 -1 -133 3 -137 9 -5
7 -8 7 -8 0z"/>
</g>
</svg>
